<svg width="1422" height="497" viewBox="0 0 1422 497" fill="none" xmlns="http://www.w3.org/2000/svg">
<g id="Vector">
<path d="M368.796 343.763L28.19 0.0585938L0.251953 0.0585938L0.251953 486.13L46.0228 486.13L46.0228 143.021L386.629 486.13L415.162 486.13L415.162 0.0585938L368.796 0.0585938L368.796 343.763Z" fill="black"/>
<path d="M1146.31 140.042L1094 140.042C1064.28 226.415 1034.55 312.788 1004.83 399.757C969.762 313.384 935.285 227.011 900.214 140.042L806.294 140.042V149.573L971.545 487.321L996.511 487.321C1046.44 362.229 1115.99 210.332 1146.31 150.169V140.042Z" fill="black"/>
<path d="M1286.22 133.49C1225.59 133.49 1147.72 175.783 1147.72 251.434L1202.41 251.434C1208.35 229.989 1213.7 208.545 1219.64 186.505C1225.59 182.335 1240.45 173.996 1261.25 173.4C1264.82 173.4 1288 172.804 1308.21 187.696C1329.02 203.184 1340.31 231.181 1340.31 268.708V286.578C1197.65 318.149 1132.26 348.529 1132.26 412.266C1132.26 458.133 1165.55 492.087 1224.4 492.087C1271.95 492.087 1309.4 469.451 1340.31 438.476L1340.31 485.534L1421.75 485.534L1421.75 249.051C1421.75 176.974 1377.76 133.49 1286.22 133.49ZM1340.31 409.288C1317.72 427.754 1291.57 440.263 1261.85 440.263C1227.37 440.263 1208.35 423.584 1208.35 396.183C1208.35 361.634 1235.69 341.976 1340.31 318.745L1340.31 409.288Z" fill="black"/>
<path d="M642.233 137.66C539.991 137.66 466.282 214.502 466.282 316.958C466.282 419.414 540.586 496.256 642.233 496.256C743.88 496.256 817.588 420.01 817.588 316.958C817.588 213.906 743.285 137.66 642.233 137.66ZM730.802 420.01C723.669 434.902 715.942 445.624 709.997 453.368C699.298 455.155 684.437 456.942 667.198 454.559C592.301 443.837 556.635 372.356 554.257 366.995C551.285 360.442 517.997 288.365 551.88 218.076C560.202 201.397 569.713 188.888 576.846 181.144C587.545 179.357 604.189 177.57 622.617 180.548C692.759 191.866 726.641 258.582 730.208 266.325C753.39 313.979 753.39 372.951 730.802 420.605V420.01Z" fill="black"/>
</g>
</svg>
