<svg width="94" height="34" viewBox="0 0 94 34" fill="none" xmlns="http://www.w3.org/2000/svg">
<path d="M24.3875 23.2565L1.88055 0.5448L0.0344238 0.5448L0.0344238 32.664L3.05892 32.664L3.05892 9.99161L25.5659 32.664L27.4513 32.664L27.4513 0.5448L24.3875 0.5448L24.3875 23.2565Z" fill="black"/>
<path d="M75.7647 9.7948L72.3081 9.7948C70.3442 15.5023 68.3802 21.2097 66.4163 26.9565C64.0988 21.2491 61.8206 15.5416 59.5031 9.7948L53.297 9.7948V10.4246L64.2166 32.7427L65.8664 32.7427C69.1658 24.4767 73.7615 14.4395 75.7647 10.464V9.7948Z" fill="black"/>
<path d="M85.0101 9.36183C81.0036 9.36183 75.858 12.1565 75.858 17.1554L79.4717 17.1554C79.8645 15.7384 80.218 14.3214 80.6108 12.865C81.0036 12.5895 81.9856 12.0384 83.3603 11.9991C83.596 11.9991 85.1279 11.9597 86.4634 12.9437C87.8382 13.9671 88.5845 15.8172 88.5845 18.2969V19.4778C79.1575 21.564 74.8367 23.5714 74.8367 27.7831C74.8367 30.814 77.0364 33.0576 80.925 33.0576C84.0674 33.0576 86.5419 31.5618 88.5845 29.515L88.5845 32.6246L93.9657 32.6246L93.9657 16.998C93.9657 12.2352 91.0591 9.36183 85.0101 9.36183ZM88.5845 27.5863C87.0919 28.8065 85.3636 29.6331 83.3996 29.6331C81.1214 29.6331 79.8645 28.531 79.8645 26.7203C79.8645 24.4374 81.6713 23.1384 88.5845 21.6033V27.5863Z" fill="black"/>
<path d="M42.456 9.63736C35.6999 9.63736 30.8293 14.715 30.8293 21.4852C30.8293 28.2555 35.7392 33.3331 42.456 33.3331C49.1727 33.3331 54.0433 28.2948 54.0433 21.4852C54.0433 14.6757 49.1334 9.63736 42.456 9.63736ZM48.3086 28.2948C47.8372 29.2789 47.3266 29.9874 46.9338 30.4991C46.2268 30.6172 45.2448 30.7352 44.1057 30.5778C39.1565 29.8693 36.7997 25.1459 36.6426 24.7916C36.4462 24.3586 34.2466 19.5959 36.4855 14.9512C37.0354 13.8491 37.6639 13.0225 38.1352 12.5108C38.8423 12.3927 39.9421 12.2746 41.1597 12.4714C45.7947 13.2193 48.0336 17.6278 48.2693 18.1395C49.8012 21.2884 49.8012 25.1852 48.3086 28.3342V28.2948Z" fill="black"/>
</svg>
